<?xml version="1.0" encoding="UTF-8"?>
<svg version="1.1" viewBox="0 0 1011 470.33" xmlns="http://www.w3.org/2000/svg" xmlns:xlink="http://www.w3.org/1999/xlink">
 <defs>
  <linearGradient id="ag">
   <stop stop-color="#ac8701" offset="0"/>
   <stop stop-color="#efbb01" offset="1"/>
  </linearGradient>
  <linearGradient id="z">
   <stop offset="0"/>
   <stop stop-color="#b3b3b3" stop-opacity="0" offset="1"/>
  </linearGradient>
  <linearGradient id="y">
   <stop offset="0"/>
   <stop stop-color="#ccc" stop-opacity="0" offset="1"/>
  </linearGradient>
  <linearGradient id="a">
   <stop stop-color="#333" offset="0"/>
   <stop stop-color="#808080" stop-opacity="0" offset="1"/>
  </linearGradient>
  <linearGradient id="x">
   <stop stop-color="#1a1a1a" offset="0"/>
   <stop stop-color="#808080" stop-opacity="0" offset="1"/>
  </linearGradient>
  <filter id="ah" color-interpolation-filters="sRGB">
   <feGaussianBlur stdDeviation="13.515804"/>
  </filter>
  <linearGradient id="aa" x1="887.9" x2="876.14" y1="528.36" y2="528.42" gradientUnits="userSpaceOnUse" xlink:href="#a"/>
  <linearGradient id="ab" x1="879.9" x2="874.87" y1="537.5" y2="533.5" gradientUnits="userSpaceOnUse" xlink:href="#a"/>
  <linearGradient id="ac" x1="897.22" x2="883.76" y1="542.4" y2="535.37" gradientUnits="userSpaceOnUse" xlink:href="#x"/>
  <linearGradient id="ad" x1="880.71" x2="876.65" y1="552.05" y2="535.37" gradientUnits="userSpaceOnUse" xlink:href="#x"/>
  <linearGradient id="ae" x1="887.9" x2="876.14" y1="528.36" y2="528.42" gradientTransform="translate(-22,316.27)" gradientUnits="userSpaceOnUse" xlink:href="#a"/>
  <linearGradient id="af" x1="879.9" x2="874.87" y1="537.5" y2="533.5" gradientTransform="translate(-24,320.27)" gradientUnits="userSpaceOnUse" xlink:href="#a"/>
  <linearGradient id="ai" x1="252.14" x2="232.43" y1="864.27" y2="863.94" gradientTransform="matrix(.99043 .13799 -.13799 .99043 120.61 -30.102)" gradientUnits="userSpaceOnUse" xlink:href="#z"/>
  <linearGradient id="aj" x1="263.89" x2="242.63" y1="865.19" y2="863.94" gradientTransform="matrix(.99043 .13799 -.13799 .99043 130.62 -29.07)" gradientUnits="userSpaceOnUse" xlink:href="#y"/>
  <linearGradient id="ak" x1="252.14" x2="232.43" y1="864.27" y2="863.94" gradientTransform="matrix(.99043 -.13799 -.13799 -.99043 120.61 1463.3)" gradientUnits="userSpaceOnUse" xlink:href="#z"/>
  <linearGradient id="al" x1="263.89" x2="242.63" y1="865.19" y2="863.94" gradientTransform="matrix(.99043 -.13799 -.13799 -.99043 130.62 1462.2)" gradientUnits="userSpaceOnUse" xlink:href="#y"/>
  <linearGradient id="am" x1="205.61" x2="484.46" y1="706.74" y2="855.6" gradientUnits="userSpaceOnUse">
   <stop stop-color="#1b1b1b" offset="0"/>
   <stop stop-color="#999" offset="1"/>
  </linearGradient>
  <linearGradient id="an" x1="778.34" x2="369.86" y1="332.14" y2="90.306" gradientUnits="userSpaceOnUse">
   <stop offset="0"/>
   <stop stop-color="#666" offset="1"/>
  </linearGradient>
  <radialGradient id="as" cx="433.45" cy="722.24" r="152.63" gradientTransform="matrix(1.1396 .0012124 -.0011604 1.0983 -59.686 -71.511)" gradientUnits="userSpaceOnUse">
   <stop stop-color="#edff00" offset="0"/>
   <stop stop-color="#fecf24" offset="1"/>
  </radialGradient>
  <linearGradient id="ao" x1="263.17" x2="109.79" y1="568.51" y2="600.68" gradientUnits="userSpaceOnUse">
   <stop stop-color="#2d2d2d" stop-opacity=".59524" offset="0"/>
   <stop stop-color="#2d2d2d" stop-opacity="0" offset="1"/>
  </linearGradient>
  <linearGradient id="ap" x1="263.89" x2="112.39" y1="867.41" y2="838.4" gradientUnits="userSpaceOnUse">
   <stop stop-opacity=".4881" offset="0"/>
   <stop stop-color="#2d2d2d" stop-opacity=".10714" offset="1"/>
  </linearGradient>
  <linearGradient id="aq" x1="866.55" x2="860.71" y1="812.2" y2="790.87" gradientUnits="userSpaceOnUse" xlink:href="#ag"/>
  <linearGradient id="ar" x1="866.55" x2="860.71" y1="812.2" y2="790.87" gradientTransform="matrix(1 0 0 -1 0 1450.5)" gradientUnits="userSpaceOnUse" xlink:href="#ag"/>
 </defs>
 <g transform="translate(-27.5 -490.48)">
  <path d="m819.03 524.05c-23.723 0-43.351 2.7299-64.233 11.437 0 0-94.186-4.8461-203.06-3.218-108.83 1.6275-205.09-11.347-286.61-9.089-81.52 2.2578-163.5 26.813-163.5 26.813l-14.97 7.4323c-17.446 8.67-26.722 98.62-26.722 169.79 0 69.677 6.4646 162.12 25.719 167.44l13.683 3.7782s85.75 26.062 152.17 28.073c66.423 2.0113 154.98-9.6693 232.95-9.5033l260.97 0.55564c23.904 11.988 45.51 10.784 73.596 10.784 133.27 0 187.66-86.933 187.03-202.16-0.6086-111.61-83.737-202.12-187.03-202.12z" fill-opacity=".99608" filter="url(#ah)"/>
  <path d="m819.03 524.05c-23.723 0-43.351 2.7299-64.233 11.437 0 0-94.186-4.8461-203.06-3.218-108.83 1.6275-205.09-11.347-286.61-9.089-81.52 2.2578-163.5 26.813-163.5 26.813l-14.97 7.4323c-17.446 8.67-26.722 98.62-26.722 169.79 0 69.677 6.4646 162.12 25.719 167.44l13.683 3.7782s85.75 26.062 152.17 28.073c66.423 2.0113 154.98-9.6693 232.95-9.5033l260.97 0.55564c23.904 11.988 45.51 10.784 73.596 10.784 133.27 0 187.66-86.933 187.03-202.16-0.6086-111.61-83.737-202.12-187.03-202.12z" fill="#ffd024" fill-opacity=".99608"/>
  <path d="m610.63 955.7c-1.5088-9e-3 -4.7706-0.30982-6.5185-0.94361l-3.5022-1.5062 10.097-41.827 26.929 0.43551-14.281 36.801c-1.9013 4.4351-8.1979 7.0682-12.724 7.0408z" fill="#ac8701" fill-opacity=".99608"/>
  <path transform="translate(27.5,490.48)" d="m664.44 60.922a82.321 170.98 0 0 0 -10.629 1.6406c-0.05248-0.065636-0.10576-0.13572-0.1582-0.20117l0.00586-0.011719-61.85 12.32c-19.252 7.1127-32 14.272-32 32v250.97c0 17.728 14.272 25.395 32 32l63.844 12.311c0.02655-0.02571 0.05158-0.05433 0.07812-0.08008a82.321 170.98 0 0 0 8.709 1.0098 82.321 170.98 0 0 0 82.32 -170.98 82.321 170.98 0 0 0 -82.32 -170.98z" fill="url(#an)" stroke="#000" stroke-width="4.9604"/>
  <path d="m260.5 590.05c-27.335 2.1967-54.651 4.6713-79.243 14.501-19.875 7.9445-49.663 51.345-49.663 111.47 0 60.102 22.62 108.95 51.156 113.53l77.75 12.47c13.296 0 24-10.704 24-24v-203.97c0-13.296-10.704-24-24-24z" fill="url(#am)" stroke="#1a1a1a" stroke-width="5"/>
  <g fill-opacity=".99608">
   <path d="m400.34 855.24c-33.364 0-65.308 1.8-94.812 5.0625 25.66 48.714 97.986 30.265 205.56 31.531 49.687 0.58471 89.544 1.8793 121.53 2.375-47.16-23.334-133.53-38.969-232.28-38.969z" fill="#0e232e"/>
   <path d="m306.47 861.99c-0.97391 0.10395-1.9688 0.20539-2.9375 0.3125 25.66 48.714 97.986 30.265 205.56 31.531 49.687 0.58471 89.544 1.8793 121.53 2.375-1.4532-0.71904-2.9418-1.4208-4.4688-2.125-30.901-0.55349-68.527-1.7024-115.06-2.25-106.32-1.2511-178.19 16.755-204.62-29.844z" fill="#0e232e" opacity=".5"/>
   <path transform="translate(0,308.27)" d="m400.34 546.97c-3.2065 0-6.3832 0.0295-9.5625 0.0625 0.81826 16.171 6.4281 30.257 14.594 38.844 4.6715-0.0756 9.4952-0.19655 14.438-0.34375-8.5658-8.1923-14.593-22.228-15.719-38.562-1.2513-5e-3 -2.4947 0-3.75 0z" opacity=".5"/>
  </g>
  <g transform="matrix(1,0,0,-1,0,1439.5)" fill-opacity=".99608">
   <path transform="translate(0,308.27)" d="m400.34 546.97c-33.364 0-65.308 1.8-94.812 5.0625 25.66 48.714 97.986 30.265 205.56 31.531 49.687 0.58471 89.544 1.8793 121.53 2.375-47.16-23.334-133.53-38.969-232.28-38.969z" fill="#0e232e"/>
   <path transform="translate(0,308.27)" d="m306.47 553.72c-0.97391 0.10395-1.9688 0.20539-2.9375 0.3125 25.66 48.714 97.986 30.265 205.56 31.531 49.687 0.58471 89.544 1.8793 121.53 2.375-1.4532-0.71904-2.9418-1.4208-4.4688-2.125-30.901-0.55349-68.527-1.7024-115.06-2.25-106.32-1.2511-178.19 16.755-204.62-29.844z" opacity=".5"/>
   <path transform="translate(0,308.27)" d="m400.34 546.97c-3.2065 0-6.3832 0.0295-9.5625 0.0625 0.81826 16.171 6.4281 30.257 14.594 38.844 4.6715-0.0756 9.4952-0.19655 14.438-0.34375-8.5658-8.1923-14.593-22.228-15.719-38.562-1.2513-5e-3 -2.4947 0-3.75 0z" opacity=".5"/>
  </g>
  <path d="m942.17 578.73c3.4119 23.068 16.82 40.95 33.594 44.344-9.2332-16.465-20.568-31.395-33.594-44.344z" fill-opacity=".99608" stroke="#000" stroke-width="5.7945"/>
  <path d="m984.28 830.96c-19.598 2.2856-35.182 24.262-36.719 51.812 15.583-14.397 27.759-31.887 36.719-51.812z" fill-opacity=".99608" stroke="#000" stroke-width="5.7945"/>
  <path d="m787.48 845.08s79.678-22.596 105.38-31.982c26.84-9.8018 98.86-39.146 98.86-39.146s-8.741 42.47-30.483 57.918c-77.224 54.87-232.69 53.854-232.69 53.854" fill="none" stroke="#4d4d4d" stroke-width="2"/>
  <path d="m787.48 604.59s79.678 22.596 105.38 31.982c26.84 9.8018 98.86 39.146 98.86 39.146s-8.741-42.47-30.483-57.918c-77.224-54.87-232.69-53.854-232.69-53.854" fill="none" stroke="#4d4d4d" stroke-width="2"/>
  <path d="m615.71 492.82c-1.5088 9e-3 -4.7706 0.30982-6.5185 0.94361l-3.5022 1.5062 10.097 41.827 26.929-0.43551-14.281-36.801c-1.9013-4.4351-8.1979-7.0682-12.724-7.0408z" fill="#ac8701" fill-opacity=".99608"/>
  <path d="m865.67 827.07-4.4375 2.3438c0.98914 1.1568 1.7955 2.4286 2.375 3.8438 4.798 11.717-10.736 29.236-26.875 35.781-0.51676 0.20958-1.8129 0.84066-3.4062 1.6562l13.625-3.875c17.306-8.4576 27.471-23.082 23-34-0.91616-2.2373-2.3752-4.1661-4.2812-5.75z" fill="none"/>
  <path transform="translate(0,308.27)" d="m882.56 511.69-4.4375 2.3438c0.98914 1.1568 1.7955 2.4286 2.375 3.8438 4.798 11.717-10.736 29.236-26.875 35.781-0.51676 0.20958-1.8129 0.84066-3.4062 1.6562l13.625-3.875c17.306-8.4576 27.471-23.082 23-34-0.91616-2.2373-2.3752-4.1661-4.2812-5.75z" fill="url(#aa)"/>
  <path transform="translate(0,308.27)" d="m882.56 511.69-4.4375 2.3438c0.98914 1.1568 1.7955 2.4286 2.375 3.8438 4.798 11.717-10.736 29.236-26.875 35.781-0.51676 0.20958-1.8129 0.84066-3.4062 1.6562l13.625-3.875c17.306-8.4576 27.471-23.082 23-34-0.91616-2.2373-2.3752-4.1661-4.2812-5.75z" fill="url(#ab)"/>
  <path transform="translate(0,308.27)" d="m905.66 506-6.1875 1.8438c0.96016 1.7128 1.6545 3.5323 2.0312 5.4688 3.1194 16.034-20.962 34.284-43.031 38.5-3.395 0.64864-28.884 8.576-32.158 8.8044v4.125l41.44-12.148c26.286-5.4963 44.949-22.448 41.875-38.25-0.59565-3.0616-1.9561-5.8595-3.9688-8.3438z" fill="url(#ac)"/>
  <path transform="translate(0,308.27)" d="m905.66 506-6.1875 1.8438c0.96016 1.7128 1.6545 3.5323 2.0312 5.4688 3.1194 16.034-20.962 34.284-43.031 38.5-3.395 0.64864-28.884 8.576-32.158 8.8044v4.125l41.44-12.148c26.286-5.4963 44.949-22.448 41.875-38.25-0.59565-3.0616-1.9561-5.8595-3.9688-8.3438z" fill="url(#ad)"/>
  <g transform="matrix(.89332 0 0 .89332 92.372 89.405)">
   <path d="m860.56 827.96-4.4375 2.3438c0.98914 1.1568 1.7955 2.4286 2.375 3.8438 4.798 11.717-10.736 29.236-26.875 35.781-0.51676 0.20958-1.8129 0.84066-3.4062 1.6562l13.625-3.875c17.306-8.4576 27.471-23.082 23-34-0.91616-2.2373-2.3752-4.1661-4.2812-5.75z" fill="url(#ae)"/>
   <path d="m858.56 831.96-4.4375 2.3438c0.98914 1.1568 1.7955 2.4286 2.375 3.8438 4.798 11.717-10.736 29.236-26.875 35.781-0.51676 0.20958-1.8129 0.84066-3.4062 1.6562l13.625-3.875c17.306-8.4576 27.471-23.082 23-34-0.91616-2.2373-2.3752-4.1661-4.2812-5.75z" fill="url(#af)"/>
  </g>
  <g transform="matrix(1,0,0,-1,0,1447.3)">
   <path d="m865.67 827.07-4.4375 2.3438c0.98914 1.1568 1.7955 2.4286 2.375 3.8438 4.798 11.717-10.736 29.236-26.875 35.781-0.51676 0.20958-1.8129 0.84066-3.4062 1.6562l13.625-3.875c17.306-8.4576 27.471-23.082 23-34-0.91616-2.2373-2.3752-4.1661-4.2812-5.75z" fill="none"/>
   <path transform="translate(0,308.27)" d="m882.56 511.69-4.4375 2.3438c0.98914 1.1568 1.7955 2.4286 2.375 3.8438 4.798 11.717-10.736 29.236-26.875 35.781-0.51676 0.20958-1.8129 0.84066-3.4062 1.6562l13.625-3.875c17.306-8.4576 27.471-23.082 23-34-0.91616-2.2373-2.3752-4.1661-4.2812-5.75z" fill="url(#aa)"/>
   <path transform="translate(0,308.27)" d="m882.56 511.69-4.4375 2.3438c0.98914 1.1568 1.7955 2.4286 2.375 3.8438 4.798 11.717-10.736 29.236-26.875 35.781-0.51676 0.20958-1.8129 0.84066-3.4062 1.6562l13.625-3.875c17.306-8.4576 27.471-23.082 23-34-0.91616-2.2373-2.3752-4.1661-4.2812-5.75z" fill="url(#ab)"/>
   <path transform="translate(0,308.27)" d="m905.66 506-6.1875 1.8438c0.96016 1.7128 1.6545 3.5323 2.0312 5.4688 3.1194 16.034-20.962 34.284-43.031 38.5-3.395 0.64864-28.884 8.576-32.158 8.8044v4.125l41.44-12.148c26.286-5.4963 44.949-22.448 41.875-38.25-0.59565-3.0616-1.9561-5.8595-3.9688-8.3438z" fill="url(#ac)"/>
   <path transform="translate(0,308.27)" d="m905.66 506-6.1875 1.8438c0.96016 1.7128 1.6545 3.5323 2.0312 5.4688 3.1194 16.034-20.962 34.284-43.031 38.5-3.395 0.64864-28.884 8.576-32.158 8.8044v4.125l41.44-12.148c26.286-5.4963 44.949-22.448 41.875-38.25-0.59565-3.0616-1.9561-5.8595-3.9688-8.3438z" fill="url(#ad)"/>
   <g transform="matrix(.89332 0 0 .89332 92.372 89.405)">
    <path d="m860.56 827.96-4.4375 2.3438c0.98914 1.1568 1.7955 2.4286 2.375 3.8438 4.798 11.717-10.736 29.236-26.875 35.781-0.51676 0.20958-1.8129 0.84066-3.4062 1.6562l13.625-3.875c17.306-8.4576 27.471-23.082 23-34-0.91616-2.2373-2.3752-4.1661-4.2812-5.75z" fill="url(#ae)"/>
    <path d="m858.56 831.96-4.4375 2.3438c0.98914 1.1568 1.7955 2.4286 2.375 3.8438 4.798 11.717-10.736 29.236-26.875 35.781-0.51676 0.20958-1.8129 0.84066-3.4062 1.6562l13.625-3.875c17.306-8.4576 27.471-23.082 23-34-0.91616-2.2373-2.3752-4.1661-4.2812-5.75z" fill="url(#af)"/>
   </g>
  </g>
  <path d="m233.27 845.72 19.798 5.7872-2.4934 17.897-20.626 0.15543 3.3213-23.839z" fill="url(#ai)"/>
  <path d="m253.29 848.74 18.843 5.5081-2.3731 17.034-19.631 0.14793 3.1611-22.69z" fill="url(#aj)"/>
  <path d="m233.27 587.43 19.798-5.7872-2.4934-17.897-20.626-0.15543 3.3213 23.839z" fill="url(#ak)"/>
  <path d="m253.29 584.41 18.843-5.5081-2.3731-17.034-19.631-0.14793 3.1611 22.69z" fill="url(#al)"/>
  <path d="m612.07 949.59c-1.5088-9e-3 -4.7706-0.30982-6.5185-0.94361l-3.5022-1.5062 8.66-35.72 20.283 0.43551-8.7127 27.461c-1.9013 4.4351-5.6832 10.301-10.209 10.274z" fill="#fecf24" fill-opacity=".99608"/>
  <path d="m617.78 501.35c-1.5088 9e-3 -4.7706 0.30982-6.5185 0.94361l-3.5022 1.5062 8.0313 33.295 22.798-0.43551-12.215-28.269c-1.9013-4.4351-2.8092-6.0803-8.5926-7.0408z" fill="#fecf24" fill-opacity=".99608"/>
  <path d="m276.1 582.88c13.651 12.933 17.962 15.807 18.681 24.429 0.7185 8.622 0.7185 216.27-1.437 222.73-2.1555 6.4665-17.244 20.836-17.244 20.836l10.059 10.777s9.3404-15.807 24.429-17.244 144.42-9.3404 197.59 5.748c53.169 15.088 71.85 22.273 71.85 22.273s-12.214-7.9034-13.651-17.962-7.185-102.03-5.0295-137.95c2.1555-35.925 10.059-132.2 15.088-139.39 5.0295-7.185-30.177 6.4665-39.517 8.6219-9.3404 2.1555-84.064 9.3404-118.55 10.059-34.488 0.7185-109.93-9.3404-117.11-9.3404-7.185 0-12.933-5.748-12.933-5.748z" fill="url(#as)" fill-rule="evenodd"/>
  <path d="m268.2 555.58-176.03 15.088s-5.0295 2.1555-10.059 34.488c-5.0295 32.332-4.311 53.169-4.311 53.169s51.732-52.45 95.56-62.509 104.18-12.933 104.18-12.933z" fill="url(#ao)" fill-rule="evenodd"/>
  <path d="m268.2 878.11-176.03-15.088s-5.0295-2.1555-10.059-34.488c-5.0295-32.332-4.311-53.169-4.311-53.169s51.732 52.45 95.56 62.509 104.18 12.933 104.18 12.933z" fill="url(#ap)" fill-rule="evenodd"/>
  <path d="m991.78 770.29s-67.571 26.927-97.038 37.088-135.14 41.152-135.14 41.152l14.225-46.233s24.601 6.4713 146.32-21.338c54.127-12.367 71.127-18.798 71.127-18.798z" fill="url(#aq)" fill-rule="evenodd" opacity=".6"/>
  <path d="m991.78 680.18s-67.571-26.927-97.038-37.088-135.14-41.152-135.14-41.152l14.225 46.233s24.601-6.4713 146.32 21.338c54.127 12.367 71.127 18.798 71.127 18.798z" fill="url(#ar)" fill-rule="evenodd" opacity=".6"/>
  <rect x="998.3" y="703.61" width="5.0805" height="48.903" rx="1.9563" ry="2.7068"/>
 </g>
</svg>
