<?xml version="1.0" encoding="utf-8"?>
<!-- Generator: Adobe Illustrator 23.0.3, SVG Export Plug-In . SVG Version: 6.00 Build 0)  -->
<svg version="1.1" id="Layer_1" xmlns="http://www.w3.org/2000/svg" xmlns:xlink="http://www.w3.org/1999/xlink" x="0px" y="0px"
	 viewBox="0 0 1011 470.3" style="enable-background:new 0 0 1011 470.3;" xml:space="preserve">
<style type="text/css">
	.st0{filter:url(#ah);}
	.st1{opacity:0.9961;}
	.st2{fill:#C9C9C9;fill-opacity:0.9961;}
	.st3{fill:#727272;fill-opacity:0.9961;}
	.st4{fill:url(#SVGID_1_);stroke:#000000;stroke-width:4.9604;}
	.st5{fill:url(#SVGID_2_);stroke:#1A1A1A;stroke-width:5;}
	.st6{fill:#0E232E;fill-opacity:0.9961;}
	.st7{opacity:0.5;fill:#0E232E;fill-opacity:0.9961;enable-background:new    ;}
	.st8{opacity:0.5;fill-opacity:0.9961;enable-background:new    ;}
	.st9{fill-opacity:0.9961;stroke:#000000;stroke-width:5.7945;}
	.st10{fill:none;stroke:#4D4D4D;stroke-width:2;}
	.st11{fill:#B7B7B6;fill-opacity:0.9961;}
	.st12{fill:none;}
	.st13{fill:url(#SVGID_3_);}
	.st14{fill:url(#SVGID_4_);}
	.st15{fill:url(#SVGID_5_);}
	.st16{fill:url(#SVGID_6_);}
	.st17{fill:url(#SVGID_7_);}
	.st18{fill:url(#SVGID_8_);}
	.st19{fill:url(#SVGID_9_);}
	.st20{fill:url(#SVGID_10_);}
	.st21{fill:url(#SVGID_11_);}
	.st22{fill:url(#SVGID_12_);}
	.st23{fill:url(#SVGID_13_);}
	.st24{fill:url(#SVGID_14_);}
	.st25{fill:url(#SVGID_15_);}
	.st26{fill:url(#SVGID_16_);}
	.st27{fill:url(#SVGID_17_);}
	.st28{fill:url(#SVGID_18_);}
	.st29{fill:url(#SVGID_19_);fill-opacity:0.9961;}
	.st30{fill:url(#SVGID_20_);fill-opacity:0.9961;}
	.st31{fill-rule:evenodd;clip-rule:evenodd;fill:url(#SVGID_21_);}
	.st32{fill-rule:evenodd;clip-rule:evenodd;fill:url(#SVGID_22_);}
	.st33{fill-rule:evenodd;clip-rule:evenodd;fill:url(#SVGID_23_);}
	.st34{opacity:0.6;fill-rule:evenodd;clip-rule:evenodd;fill:url(#SVGID_24_);enable-background:new    ;}
	.st35{opacity:0.6;fill-rule:evenodd;clip-rule:evenodd;fill:url(#SVGID_25_);enable-background:new    ;}
</style>
<filter  color-interpolation-filters="sRGB" id="ah">
	<feGaussianBlur  stdDeviation="13.515804"></feGaussianBlur>
</filter>
<g transform="translate(-27.5 -490.48)">
	<g class="st0">
		<path class="st1" d="M819,524c-23.7,0-43.4,2.7-64.2,11.4c0,0-94.2-4.8-203.1-3.2c-108.8,1.6-205.1-11.3-286.6-9.1
			c-81.5,2.3-163.5,26.8-163.5,26.8l-15,7.4c-17.4,8.7-26.7,98.6-26.7,169.8c0,69.7,6.5,162.1,25.7,167.4l13.7,3.8
			c0,0,85.7,26.1,152.2,28.1c66.4,2,155-9.7,233-9.5l261,0.6c23.9,12,45.5,10.8,73.6,10.8c133.3,0,187.7-86.9,187-202.2
			C1005.4,614.6,922.3,524.1,819,524L819,524z"/>
	</g>
	<path class="st2" d="M819,524c-23.7,0-43.4,2.7-64.2,11.4c0,0-94.2-4.8-203.1-3.2c-108.8,1.6-205.1-11.3-286.6-9.1
		c-81.5,2.3-163.5,26.8-163.5,26.8l-15,7.4c-17.4,8.7-26.7,98.6-26.7,169.8c0,69.7,6.5,162.1,25.7,167.4l13.7,3.8
		c0,0,85.7,26.1,152.2,28.1c66.4,2,155-9.7,233-9.5l261,0.6c23.9,12,45.5,10.8,73.6,10.8c133.3,0,187.7-86.9,187-202.2
		C1005.4,614.6,922.3,524.1,819,524L819,524z"/>
	<path class="st3" d="M610.6,955.7c-1.5,0-4.8-0.3-6.5-0.9l-3.5-1.5l10.1-41.8l26.9,0.4l-14.3,36.8
		C621.5,953.1,615.2,955.7,610.6,955.7L610.6,955.7z"/>
	
		<linearGradient id="SVGID_1_" gradientUnits="userSpaceOnUse" x1="814.7007" y1="645.3065" x2="406.2206" y2="887.1405" gradientTransform="matrix(1 0 0 -1 0 1452.9601)">
		<stop  offset="0" style="stop-color:#000000"/>
		<stop  offset="1" style="stop-color:#666666"/>
	</linearGradient>
	<path class="st4" d="M691.9,551.4c-3.6,0.1-7.1,0.6-10.6,1.6c-0.1-0.1-0.1-0.1-0.2-0.2l0,0l-61.8,12.3c-19.3,7.1-32,14.3-32,32v251
		c0,17.7,14.3,25.4,32,32l63.8,12.3c0,0,0.1-0.1,0.1-0.1c2.9,0.7,5.8,1,8.7,1c45.5,0,82.3-76.6,82.3-171S737.4,551.4,691.9,551.4
		L691.9,551.4z"/>
	
		<linearGradient id="SVGID_2_" gradientUnits="userSpaceOnUse" x1="235.6806" y1="260.5553" x2="514.5305" y2="111.6953" gradientTransform="matrix(1 0 0 -1 -27.5 962.48)">
		<stop  offset="0" style="stop-color:#1B1B1B"/>
		<stop  offset="1" style="stop-color:#999999"/>
	</linearGradient>
	<path class="st5" d="M260.5,590c-27.3,2.2-54.7,4.7-79.2,14.5c-19.9,7.9-49.7,51.3-49.7,111.5c0,60.1,22.6,109,51.2,113.5
		l77.8,12.5c13.3,0,24-10.7,24-24v-204C284.5,600.8,273.8,590.1,260.5,590L260.5,590z"/>
	<g>
		<path class="st6" d="M400.3,855.2c-33.4,0-65.3,1.8-94.8,5.1c25.7,48.7,98,30.3,205.6,31.5c49.7,0.6,89.5,1.9,121.5,2.4
			C585.5,870.9,499.1,855.2,400.3,855.2L400.3,855.2z"/>
		<path class="st7" d="M306.5,862c-1,0.1-2,0.2-2.9,0.3c25.7,48.7,98,30.3,205.6,31.5c49.7,0.6,89.5,1.9,121.5,2.4
			c-1.5-0.7-2.9-1.4-4.5-2.1c-30.9-0.6-68.5-1.7-115.1-2.2C404.8,890.6,332.9,908.6,306.5,862L306.5,862z"/>
		<path class="st8" d="M400.3,855.2c-3.2,0-6.4,0-9.6,0.1c0.8,16.2,6.4,30.3,14.6,38.8c4.7-0.1,9.5-0.2,14.4-0.3
			c-8.6-8.2-14.6-22.2-15.7-38.6C402.8,855.2,401.6,855.2,400.3,855.2L400.3,855.2z"/>
	</g>
	<g transform="matrix(1,0,0,-1,0,1439.5)">
		<path class="st6" d="M400.3,855.2c-33.4,0-65.3,1.8-94.8,5.1c25.7,48.7,98,30.3,205.6,31.5c49.7,0.6,89.5,1.9,121.5,2.4
			C585.5,870.9,499.1,855.2,400.3,855.2L400.3,855.2z"/>
		<path class="st8" d="M306.5,862c-1,0.1-2,0.2-2.9,0.3c25.7,48.7,98,30.3,205.6,31.5c49.7,0.6,89.5,1.9,121.5,2.4
			c-1.5-0.7-2.9-1.4-4.5-2.1c-30.9-0.6-68.5-1.7-115.1-2.2C404.8,890.6,332.9,908.6,306.5,862L306.5,862z"/>
		<path class="st8" d="M400.3,855.2c-3.2,0-6.4,0-9.6,0.1c0.8,16.2,6.4,30.3,14.6,38.8c4.7-0.1,9.5-0.2,14.4-0.3
			c-8.6-8.2-14.6-22.2-15.7-38.6C402.8,855.2,401.6,855.2,400.3,855.2L400.3,855.2z"/>
	</g>
	<path class="st9" d="M942.2,578.7c3.4,23.1,16.8,41,33.6,44.3C966.5,606.6,955.2,591.7,942.2,578.7z"/>
	<path class="st9" d="M984.3,831c-19.6,2.3-35.2,24.3-36.7,51.8C963.1,868.4,975.3,850.9,984.3,831z"/>
	<path class="st10" d="M787.5,845.1c0,0,79.7-22.6,105.4-32c26.8-9.8,98.9-39.1,98.9-39.1s-8.7,42.5-30.5,57.9
		c-77.2,54.9-232.7,53.9-232.7,53.9"/>
	<path class="st10" d="M787.5,604.6c0,0,79.7,22.6,105.4,32c26.8,9.8,98.9,39.1,98.9,39.1s-8.7-42.5-30.5-57.9
		c-77.2-54.9-232.7-53.9-232.7-53.9"/>
	<path class="st11" d="M615.7,492.8c-1.5,0-4.8,0.3-6.5,0.9l-3.5,1.5l10.1,41.8l26.9-0.4l-14.3-36.8
		C626.5,495.4,620.2,492.8,615.7,492.8L615.7,492.8z"/>
	<path class="st12" d="M865.7,827.1l-4.4,2.3c1,1.2,1.8,2.4,2.4,3.8c4.8,11.7-10.7,29.2-26.9,35.8c-0.5,0.2-1.8,0.8-3.4,1.7
		l13.6-3.9c17.3-8.5,27.5-23.1,23-34C869,830.6,867.6,828.7,865.7,827.1L865.7,827.1z"/>
	
		<linearGradient id="SVGID_3_" gradientUnits="userSpaceOnUse" x1="915.4478" y1="429.0877" x2="903.6878" y2="429.0277" gradientTransform="matrix(1 0 0 -1 -27.5 1270.75)">
		<stop  offset="0" style="stop-color:#333333"/>
		<stop  offset="1" style="stop-color:#808080;stop-opacity:0"/>
	</linearGradient>
	<path class="st13" d="M882.6,820l-4.4,2.3c1,1.2,1.8,2.4,2.4,3.8c4.8,11.7-10.7,29.2-26.9,35.8c-0.5,0.2-1.8,0.8-3.4,1.7l13.6-3.9
		c17.3-8.5,27.5-23.1,23-34C885.9,823.5,884.5,821.5,882.6,820L882.6,820z"/>
	
		<linearGradient id="SVGID_4_" gradientUnits="userSpaceOnUse" x1="904.1131" y1="420.8466" x2="899.0831" y2="424.8466" gradientTransform="matrix(1 0 0 -1 -27.5 1270.75)">
		<stop  offset="0" style="stop-color:#333333"/>
		<stop  offset="1" style="stop-color:#808080;stop-opacity:0"/>
	</linearGradient>
	<path class="st14" d="M882.6,820l-4.4,2.3c1,1.2,1.8,2.4,2.4,3.8c4.8,11.7-10.7,29.2-26.9,35.8c-0.5,0.2-1.8,0.8-3.4,1.7l13.6-3.9
		c17.3-8.5,27.5-23.1,23-34C885.9,823.5,884.5,821.5,882.6,820L882.6,820z"/>
	
		<linearGradient id="SVGID_5_" gradientUnits="userSpaceOnUse" x1="920.9105" y1="412.7862" x2="907.4506" y2="419.8163" gradientTransform="matrix(1 0 0 -1 -27.5 1270.75)">
		<stop  offset="0" style="stop-color:#1A1A1A"/>
		<stop  offset="1" style="stop-color:#808080;stop-opacity:0"/>
	</linearGradient>
	<path class="st15" d="M905.7,814.3l-6.2,1.8c1,1.7,1.7,3.5,2,5.5c3.1,16-21,34.3-43,38.5c-3.4,0.6-28.9,8.6-32.2,8.8v4.1l41.4-12.1
		c26.3-5.5,44.9-22.4,41.9-38.2C909,819.6,907.7,816.8,905.7,814.3L905.7,814.3z"/>
	
		<linearGradient id="SVGID_6_" gradientUnits="userSpaceOnUse" x1="899.0682" y1="408.2049" x2="895.0082" y2="424.8849" gradientTransform="matrix(1 0 0 -1 -27.5 1270.75)">
		<stop  offset="0" style="stop-color:#1A1A1A"/>
		<stop  offset="1" style="stop-color:#808080;stop-opacity:0"/>
	</linearGradient>
	<path class="st16" d="M905.7,814.3l-6.2,1.8c1,1.7,1.7,3.5,2,5.5c3.1,16-21,34.3-43,38.5c-3.4,0.6-28.9,8.6-32.2,8.8v4.1l41.4-12.1
		c26.3-5.5,44.9-22.4,41.9-38.2C909,819.6,907.7,816.8,905.7,814.3L905.7,814.3z"/>
	<g transform="matrix(.89332 0 0 .89332 92.372 89.405)">
		
			<linearGradient id="SVGID_7_" gradientUnits="userSpaceOnUse" x1="982.0583" y1="339.6085" x2="970.2983" y2="339.5485" gradientTransform="matrix(0.8933 0 0 -0.8933 -11.3445 1153.0415)">
			<stop  offset="0" style="stop-color:#333333"/>
			<stop  offset="1" style="stop-color:#808080;stop-opacity:0"/>
		</linearGradient>
		<path class="st17" d="M860.6,828l-4.4,2.3c1,1.2,1.8,2.4,2.4,3.8c4.8,11.7-10.7,29.2-26.9,35.8c-0.5,0.2-1.8,0.8-3.4,1.7l13.6-3.9
			c17.3-8.5,27.5-23.1,23-34C863.9,831.5,862.5,829.5,860.6,828L860.6,828z"/>
		
			<linearGradient id="SVGID_8_" gradientUnits="userSpaceOnUse" x1="969.37" y1="330.3833" x2="964.34" y2="334.3833" gradientTransform="matrix(0.8933 0 0 -0.8933 -13.3445 1157.0415)">
			<stop  offset="0" style="stop-color:#333333"/>
			<stop  offset="1" style="stop-color:#808080;stop-opacity:0"/>
		</linearGradient>
		<path class="st18" d="M858.6,832l-4.4,2.3c1,1.2,1.8,2.4,2.4,3.8c4.8,11.7-10.7,29.2-26.9,35.8c-0.5,0.2-1.8,0.8-3.4,1.7l13.6-3.9
			c17.3-8.5,27.5-23.1,23-34C861.9,835.5,860.5,833.5,858.6,832L858.6,832z"/>
	</g>
	<g transform="matrix(1,0,0,-1,0,1447.3)">
		<path class="st12" d="M865.7,827.1l-4.4,2.3c1,1.2,1.8,2.4,2.4,3.8c4.8,11.7-10.7,29.2-26.9,35.8c-0.5,0.2-1.8,0.8-3.4,1.7
			l13.6-3.9c17.3-8.5,27.5-23.1,23-34C869,830.6,867.6,828.7,865.7,827.1L865.7,827.1z"/>
		
			<linearGradient id="SVGID_9_" gradientUnits="userSpaceOnUse" x1="915.4478" y1="410.2124" x2="903.6878" y2="410.2724" gradientTransform="matrix(1 0 0 1 -27.5 431.45)">
			<stop  offset="0" style="stop-color:#333333"/>
			<stop  offset="1" style="stop-color:#808080;stop-opacity:0"/>
		</linearGradient>
		<path class="st19" d="M882.6,820l-4.4,2.3c1,1.2,1.8,2.4,2.4,3.8c4.8,11.7-10.7,29.2-26.9,35.8c-0.5,0.2-1.8,0.8-3.4,1.7l13.6-3.9
			c17.3-8.5,27.5-23.1,23-34C885.9,823.5,884.5,821.5,882.6,820L882.6,820z"/>
		
			<linearGradient id="SVGID_10_" gradientUnits="userSpaceOnUse" x1="904.1131" y1="418.4534" x2="899.0831" y2="414.4534" gradientTransform="matrix(1 0 0 1 -27.5 431.45)">
			<stop  offset="0" style="stop-color:#333333"/>
			<stop  offset="1" style="stop-color:#808080;stop-opacity:0"/>
		</linearGradient>
		<path class="st20" d="M882.6,820l-4.4,2.3c1,1.2,1.8,2.4,2.4,3.8c4.8,11.7-10.7,29.2-26.9,35.8c-0.5,0.2-1.8,0.8-3.4,1.7l13.6-3.9
			c17.3-8.5,27.5-23.1,23-34C885.9,823.5,884.5,821.5,882.6,820L882.6,820z"/>
		
			<linearGradient id="SVGID_11_" gradientUnits="userSpaceOnUse" x1="920.9105" y1="426.5138" x2="907.4506" y2="419.4838" gradientTransform="matrix(1 0 0 1 -27.5 431.45)">
			<stop  offset="0" style="stop-color:#1A1A1A"/>
			<stop  offset="1" style="stop-color:#808080;stop-opacity:0"/>
		</linearGradient>
		<path class="st21" d="M905.7,814.3l-6.2,1.8c1,1.7,1.7,3.5,2,5.5c3.1,16-21,34.3-43,38.5c-3.4,0.6-28.9,8.6-32.2,8.8v4.1
			l41.4-12.1c26.3-5.5,44.9-22.4,41.9-38.2C909,819.6,907.7,816.8,905.7,814.3L905.7,814.3z"/>
		
			<linearGradient id="SVGID_12_" gradientUnits="userSpaceOnUse" x1="899.0682" y1="431.0952" x2="895.0082" y2="414.4152" gradientTransform="matrix(1 0 0 1 -27.5 431.45)">
			<stop  offset="0" style="stop-color:#1A1A1A"/>
			<stop  offset="1" style="stop-color:#808080;stop-opacity:0"/>
		</linearGradient>
		<path class="st22" d="M905.7,814.3l-6.2,1.8c1,1.7,1.7,3.5,2,5.5c3.1,16-21,34.3-43,38.5c-3.4,0.6-28.9,8.6-32.2,8.8v4.1
			l41.4-12.1c26.3-5.5,44.9-22.4,41.9-38.2C909,819.6,907.7,816.8,905.7,814.3L905.7,814.3z"/>
		<g transform="matrix(.89332 0 0 .89332 92.372 89.405)">
			
				<linearGradient id="SVGID_13_" gradientUnits="userSpaceOnUse" x1="982.0583" y1="318.4792" x2="970.2983" y2="318.5392" gradientTransform="matrix(0.8933 0 0 0.8933 -11.3445 565.1586)">
				<stop  offset="0" style="stop-color:#333333"/>
				<stop  offset="1" style="stop-color:#808080;stop-opacity:0"/>
			</linearGradient>
			<path class="st23" d="M860.6,828l-4.4,2.3c1,1.2,1.8,2.4,2.4,3.8c4.8,11.7-10.7,29.2-26.9,35.8c-0.5,0.2-1.8,0.8-3.4,1.7
				l13.6-3.9c17.3-8.5,27.5-23.1,23-34C863.9,831.5,862.5,829.5,860.6,828L860.6,828z"/>
			
				<linearGradient id="SVGID_14_" gradientUnits="userSpaceOnUse" x1="969.37" y1="327.7043" x2="964.34" y2="323.7043" gradientTransform="matrix(0.8933 0 0 0.8933 -13.3445 569.1586)">
				<stop  offset="0" style="stop-color:#333333"/>
				<stop  offset="1" style="stop-color:#808080;stop-opacity:0"/>
			</linearGradient>
			<path class="st24" d="M858.6,832l-4.4,2.3c1,1.2,1.8,2.4,2.4,3.8c4.8,11.7-10.7,29.2-26.9,35.8c-0.5,0.2-1.8,0.8-3.4,1.7
				l13.6-3.9c17.3-8.5,27.5-23.1,23-34C861.9,835.5,860.5,833.5,858.6,832L858.6,832z"/>
		</g>
	</g>
	
		<linearGradient id="SVGID_15_" gradientUnits="userSpaceOnUse" x1="317.2478" y1="163.7697" x2="297.5378" y2="164.0997" gradientTransform="matrix(0.9904 0.138 0.138 -0.9904 -85.7332 979.1105)">
		<stop  offset="0" style="stop-color:#000000"/>
		<stop  offset="1" style="stop-color:#B3B3B3;stop-opacity:0"/>
	</linearGradient>
	<path class="st25" d="M233.3,845.7l19.8,5.8l-2.5,17.9l-20.6,0.2L233.3,845.7L233.3,845.7z"/>
	
		<linearGradient id="SVGID_16_" gradientUnits="userSpaceOnUse" x1="328.9976" y1="162.842" x2="307.7375" y2="164.092" gradientTransform="matrix(0.9904 0.138 0.138 -0.9904 -75.7232 980.1425)">
		<stop  offset="0" style="stop-color:#000000"/>
		<stop  offset="1" style="stop-color:#CCCCCC;stop-opacity:0"/>
	</linearGradient>
	<path class="st26" d="M253.3,848.7l18.8,5.5l-2.4,17l-19.6,0.1L253.3,848.7L253.3,848.7z"/>
	
		<linearGradient id="SVGID_17_" gradientUnits="userSpaceOnUse" x1="233.3485" y1="765.908" x2="213.6385" y2="766.238" gradientTransform="matrix(0.9904 -0.138 0.138 0.9904 -85.7332 -153.9125)">
		<stop  offset="0" style="stop-color:#000000"/>
		<stop  offset="1" style="stop-color:#B3B3B3;stop-opacity:0"/>
	</linearGradient>
	<path class="st27" d="M233.3,587.4l19.8-5.8l-2.5-17.9l-20.6-0.2L233.3,587.4L233.3,587.4z"/>
	
		<linearGradient id="SVGID_18_" gradientUnits="userSpaceOnUse" x1="245.1002" y1="765.0474" x2="223.8402" y2="766.2974" gradientTransform="matrix(0.9904 -0.138 0.138 0.9904 -75.7232 -155.0126)">
		<stop  offset="0" style="stop-color:#000000"/>
		<stop  offset="1" style="stop-color:#CCCCCC;stop-opacity:0"/>
	</linearGradient>
	<path class="st28" d="M253.3,584.4l18.8-5.5l-2.4-17l-19.6-0.1L253.3,584.4L253.3,584.4z"/>
	<linearGradient id="SVGID_19_" gradientUnits="userSpaceOnUse" x1="637.0415" y1="930.5054" x2="608.0985" y2="930.5054">
		<stop  offset="0" style="stop-color:#848484"/>
		<stop  offset="1" style="stop-color:#D8D8D8"/>
	</linearGradient>
	<path class="st29" d="M612.1,949.6c-1.5,0-4.8-0.3-6.5-0.9l-3.5-1.5l8.7-35.7l20.3,0.4l-8.7,27.5
		C620.4,943.8,616.6,949.6,612.1,949.6L612.1,949.6z"/>
	<linearGradient id="SVGID_20_" gradientUnits="userSpaceOnUse" x1="643.5779" y1="519.2224" x2="616.9882" y2="519.2224">
		<stop  offset="0" style="stop-color:#848484"/>
		<stop  offset="1" style="stop-color:#D8D8D8"/>
	</linearGradient>
	<path class="st30" d="M618.2,501.4c-1.5,0-4.8,0.3-6.5,0.9l-3.5,1.5l8,33.3l22.8-0.4l-12.2-28.3C624.9,504,624,502.3,618.2,501.4
		L618.2,501.4z"/>
	
		<radialGradient id="SVGID_21_" cx="405.6168" cy="267.8887" r="152.63" gradientTransform="matrix(1.1396 1.212400e-03 1.160400e-03 -1.0983 -29.1162 1015.9811)" gradientUnits="userSpaceOnUse">
		<stop  offset="0" style="stop-color:#FFFFFF"/>
		<stop  offset="1" style="stop-color:#C9C9C9"/>
	</radialGradient>
	<path class="st31" d="M276.1,582.9c13.7,12.9,18,15.8,18.7,24.4c0.7,8.6,0.7,216.3-1.4,222.7c-2.2,6.5-17.2,20.8-17.2,20.8
		l10.1,10.8c0,0,9.3-15.8,24.4-17.2s144.4-9.3,197.6,5.7c53.2,15.1,71.9,22.3,71.9,22.3s-12.2-7.9-13.7-18s-7.2-102-5-138
		c2.2-35.9,10.1-132.2,15.1-139.4c5-7.2-30.2,6.5-39.5,8.6c-9.3,2.2-84.1,9.3-118.5,10.1c-34.5,0.7-109.9-9.3-117.1-9.3
		c-7.2,0-12.9-5.7-12.9-5.7L276.1,582.9z"/>
	
		<linearGradient id="SVGID_22_" gradientUnits="userSpaceOnUse" x1="292.4006" y1="385.7191" x2="139.0206" y2="353.5491" gradientTransform="matrix(1 0 0 -1 -27.5 962.48)">
		<stop  offset="0" style="stop-color:#2D2D2D;stop-opacity:0.5952"/>
		<stop  offset="1" style="stop-color:#2D2D2D;stop-opacity:0"/>
	</linearGradient>
	<path class="st32" d="M268.2,555.6l-176,15.1c0,0-5,2.2-10.1,34.5c-5,32.3-4.3,53.2-4.3,53.2s51.7-52.5,95.6-62.5
		s104.2-12.9,104.2-12.9L268.2,555.6z"/>
	
		<linearGradient id="SVGID_23_" gradientUnits="userSpaceOnUse" x1="293.9684" y1="108.5352" x2="142.4684" y2="137.5452" gradientTransform="matrix(1 0 0 -1 -27.5 962.48)">
		<stop  offset="0" style="stop-color:#000000;stop-opacity:0.4881"/>
		<stop  offset="1" style="stop-color:#2D2D2D;stop-opacity:0.1071"/>
	</linearGradient>
	<path class="st33" d="M268.2,878.1L92.2,863c0,0-5-2.2-10.1-34.5c-5-32.3-4.3-53.2-4.3-53.2s51.7,52.5,95.6,62.5
		s104.2,12.9,104.2,12.9L268.2,878.1z"/>
	
		<linearGradient id="SVGID_24_" gradientUnits="userSpaceOnUse" x1="904.064" y1="153.0218" x2="898.2241" y2="174.3518" gradientTransform="matrix(1 0 0 -1 -27.5 962.48)">
		<stop  offset="0" style="stop-color:#848484"/>
		<stop  offset="1" style="stop-color:#BEBEBE"/>
	</linearGradient>
	<path class="st34" d="M991.8,770.3c0,0-67.6,26.9-97,37.1s-135.1,41.2-135.1,41.2l14.2-46.2c0,0,24.6,6.5,146.3-21.3
		c54.1-12.4,71.1-18.8,71.1-18.8L991.8,770.3z"/>
	
		<linearGradient id="SVGID_25_" gradientUnits="userSpaceOnUse" x1="904.0564" y1="761.0197" x2="898.2164" y2="782.3497" gradientTransform="matrix(1 0 0 1 -27.5 -119.98)">
		<stop  offset="0" style="stop-color:#848484"/>
		<stop  offset="1" style="stop-color:#BEBEBE"/>
	</linearGradient>
	<path class="st35" d="M991.8,680.2c0,0-67.6-26.9-97-37.1s-135.1-41.2-135.1-41.2l14.2,46.2c0,0,24.6-6.5,146.3,21.3
		c54.1,12.4,71.1,18.8,71.1,18.8L991.8,680.2z"/>
	<path d="M1000.3,703.6h1.2c1.1,0,2,1.2,2,2.7v43.5c0,1.5-0.9,2.7-2,2.7h-1.2c-1.1,0-2-1.2-2-2.7v-43.5
		C998.3,704.8,999.2,703.6,1000.3,703.6z"/>
</g>
</svg>
